REM COMMENT "Generated by cuetube 0.1.0 - Fri Sep 08 2017 08:35:02 GMT+0200 (Paris, Madrid (heure d’été))"
TITLE "Claude Debussy - Images I & II (Michelangeli)"
REM SRC "https://www.youtube.com/watch?v=mskURYO7DiA"
PERFORMER "Reveriemusic"
FILE "https://www.youtube.com/watch?v=mskURYO7DiA" MP3
  TRACK 01 MP3
    TITLE "Reflets dans l'eau 물의 반영"
    INDEX 01 00:17:00
  TRACK 02 MP3
    TITLE "Hommage a Rameau 라모를 찬양하며"
    INDEX 01 04:57:00
  TRACK 03 MP3
    TITLE "Mouvement 움직임"
    INDEX 01 11:12:00
